  <svg xmlns="http://www.w3.org/2000/svg">
    <symbol viewBox="0 0 24 14" id="vk-icon">
      <path fill-rule="evenodd" clip-rule="evenodd"
        d="M23.45 0.948C23.616 0.402 23.45 0 22.655 0H20.03C19.362 0 19.054 0.347 18.887 0.73C18.887 0.73 17.552 3.926 15.661 6.002C15.049 6.604 14.771 6.795 14.437 6.795C14.27 6.795 14.019 6.604 14.019 6.057V0.948C14.019 0.292 13.835 0 13.279 0H9.151C8.734 0 8.483 0.304 8.483 0.593C8.483 1.214 9.429 1.358 9.526 3.106V6.904C9.526 7.737 9.373 7.888 9.039 7.888C8.149 7.888 5.984 4.677 4.699 1.003C4.45 0.288 4.198 0 3.527 0H0.9C0.15 0 0 0.347 0 0.73C0 1.412 0.89 4.8 4.145 9.281C6.315 12.341 9.37 14 12.153 14C13.822 14 14.028 13.632 14.028 12.997V10.684C14.028 9.947 14.186 9.8 14.715 9.8C15.105 9.8 15.772 9.992 17.33 11.467C19.11 13.216 19.403 14 20.405 14H23.03C23.78 14 24.156 13.632 23.94 12.904C23.702 12.18 22.852 11.129 21.725 9.882C21.113 9.172 20.195 8.407 19.916 8.024C19.527 7.533 19.638 7.314 19.916 6.877C19.916 6.877 23.116 2.451 23.449 0.948H23.45Z" />
    </symbol>
    <symbol viewBox="0 0 22 18" id="tg-icon">
      <path
        d="M21.4393 1.62225L18.2705 16.566C18.0313 17.6205 17.408 17.883 16.5223 17.3865L11.6938 13.8285L9.36427 16.0695C9.10627 16.3275 8.89102 16.5428 8.39377 16.5428L8.74102 11.6258L17.6893 3.54C18.0785 3.1935 17.6045 3.00075 17.0848 3.348L6.02227 10.314L1.25977 8.823C0.224021 8.49975 0.205271 7.78725 1.47577 7.29L20.1035 0.113253C20.966 -0.209997 21.7205 0.305253 21.4393 1.623V1.62225Z" />
    </symbol>
    <symbol viewBox="0 0 20 14" id="yt-icon">
      <path
        d="M17.1813 0H2.81331C1.30618 0 0 1.3 0 2.8V11.1C0 12.7 1.30618 14 2.81331 14H17.1813C18.7889 14 19.9946 12.7 19.9946 11.2V2.8C20.095 1.3 18.7889 0 17.1813 0ZM7.03326 10.4V3.6L13.8656 7L7.03326 10.4Z" />
    </symbol>
    <symbol viewBox="0 0 27 35" id="academy-icon">
      <path
        d="M13.65 0.449951H13.55L0.0500031 1.84995V26.55L13.55 34.5499L26.95 26.55V1.84995L13.65 0.449951ZM25.05 12.55L13.55 5.74995V5.64995H13.45L13.35 5.54995V5.64995L1.95 12.55V3.54995L13.45 2.34995L25.05 3.54995V12.55ZM13.45 7.24995L24.95 13.95L20.45 16.55L13.35 12.35V13.75L19.25 17.25L18.35 17.75L13.35 14.75V16.15L17.15 18.45L16.35 18.95L13.35 17.15V18.55L15.25 19.65L13.45 20.75L2.05 14.05L13.45 7.24995ZM1.95 15.55L13.35 22.35V23.35L5.45 18.65V20.05L13.45 24.85V25.95L5.45 21.25V22.65L13.45 27.45L21.55 22.55V17.35L24.95 15.35V25.35L13.45 32.25L1.95 25.45V15.55Z" fill="currentColor"/>
    </symbol>
    <symbol viewBox="0 0 23 21" id="like-icon">
      <path d="M12.9636 3.78L12.3364 6.825L11.7091 9.45H14.3227H20.8045V11.55C20.8045 11.55 20.8045 11.55 20.8045 11.655L17.7727 18.9H8.36364V8.4L12.9636 3.78ZM2.09091 10.5V18.9V10.5ZM13.8 0L6.9 6.93C6.48182 7.245 6.27273 7.77 6.27273 8.4V18.9C6.27273 20.055 7.21364 21 8.36364 21H17.7727C18.6091 21 19.3409 20.475 19.6545 19.74L22.7909 12.285C22.8955 12.075 22.8955 11.76 22.8955 11.55V9.45H23C23 8.295 22.0591 7.35 20.9091 7.35H14.3227L15.3682 2.52V2.205C15.3682 1.785 15.1591 1.365 14.95 1.05L13.8 0ZM4.18182 8.4H0V21H4.18182V8.4Z"/>
    </symbol>
  </svg>
